

<svg version="1.1" id="Capa_1" xmlns="http://www.w3.org/2000/svg" xmlns:xlink="http://www.w3.org/1999/xlink" x="0px" y="0px"
	 width="300px" height="106px" viewBox="0 0 300 106" enable-background="new 0 0 300 106" xml:space="preserve">
<g>
	<path d="M44.496,28.215h-0.058c-8.948,0-16.794,4.751-21.157,11.867H9.398v5.962h30.074c1.11,0,2.011,0.905,2.011,2.015
		c0,1.106-0.9,1.996-2.011,1.996H9.398v5.989h30.074c1.028,0,1.866,0.801,2.011,1.799v0.562c-0.145,0.982-0.982,1.673-2.011,1.673
		H9.398v5.933h13.938c4.368,7.071,12.189,11.775,21.103,11.775c0,0,0.043,0,0.058,0C58.159,77.762,69.22,66.673,69.22,52.998
		C69.22,39.336,58.159,28.25,44.496,28.215z M44.496,71.756c-0.015,0-0.039,0.009-0.039,0.009c-5.325,0-10.136-2.217-13.533-5.755
		h8.549c0.701,0,1.36-0.093,2.011-0.258c2.786-0.719,4.971-2.898,5.703-5.675c0.119-0.454,0.202-0.931,0.243-1.424v-1.262
		c-0.027-0.462-0.11-0.913-0.218-1.348c-0.29-1.11-0.814-2.131-1.504-3c0.689-0.869,1.214-1.872,1.489-2.989
		c0.122-0.432,0.191-0.891,0.232-1.359v-1.274c-0.041-0.473-0.11-0.924-0.232-1.378c-0.723-2.791-2.91-4.987-5.714-5.708
		c-0.65-0.17-1.31-0.254-2.011-0.254h-8.628c3.421-3.595,8.234-5.838,13.594-5.838c0,0,0.043,0,0.058,0
		c10.339,0.037,18.696,8.417,18.696,18.754C63.192,63.345,54.835,71.729,44.496,71.756z"/>
	<g>
		<path d="M95.769,40.08v4.074c0,0,6.9,0,8.901,0c0,2.46,0,21.851,0,21.851h4.818c0,0,0-19.39,0-21.851c2.006,0,8.96,0,8.96,0V40.08
			H95.769z"/>
	</g>
	<g>
		<path d="M126.466,40.08c-1.198,0-2.272,0.236-3.186,0.709c-1.399,0.73-2.166,1.964-2.166,3.478L121.099,61.8
			c0,1.021,0.375,2.458,2.168,3.435c0.981,0.511,2.043,0.77,3.199,0.77h13.163v-4.259h-13.347c-0.268-0.035-0.328-0.086-0.388-0.115
			c0-0.299,0-4.587,0-6.504c2.191,0,11.809,0,11.809,0v-4.229c0,0-9.617,0-11.809,0c0-1.917,0-6.2,0-6.478
			c0.099-0.028,0.253-0.071,0.534-0.106l13.2,0.009V40.08H126.466z"/>
	</g>
	<g>
		<path d="M148.682,42.797c-4.115,2.358-6.196,5.806-6.196,10.222c0,4.463,2.077,7.914,6.159,10.274
			c3.153,1.803,6.904,2.721,11.169,2.721c4.398,0,8.286-1.116,11.562-3.33l1.321-0.888l-2.926-3.531l-1.076,0.799
			c-2.454,1.836-5.442,2.752-8.881,2.752c-3.261,0-6.099-0.701-8.438-2.078c-2.681-1.599-3.989-3.809-3.989-6.751
			c0-2.924,1.309-5.106,4.004-6.698c2.352-1.389,5.177-2.083,8.424-2.083c3.519,0,6.51,0.892,8.881,2.656l0.721,0.549l4.277-2.354
			l-1.839-1.326c-3.324-2.424-7.378-3.65-12.04-3.65C155.584,40.08,151.839,40.989,148.682,42.797z"/>
	</g>
	<g>
		<path d="M175.305,43.573v22.431h4.794c0,0,0-15.839,0-19.921c3.372,5.126,11.638,17.688,11.638,17.688
			c0.939,1.449,2.305,2.232,3.919,2.232c3.682,0,3.967-2.689,3.967-3.515l0.007-22.41h-4.822c0,0,0,15.72,0,19.851
			c-3.347-5.098-11.621-17.66-11.621-17.66c-0.949-1.444-2.312-2.191-3.942-2.191C175.586,40.08,175.305,42.753,175.305,43.573z"/>
	</g>
	<g>
		<g>
			<g>
				<path d="M231.322,43.715c-3.26-2.414-7.365-3.636-12.207-3.636c-4.889,0-8.997,1.208-12.24,3.593
					c-2.8,2.055-4.216,5.202-4.216,9.347c0,4.153,1.401,7.303,4.175,9.357c3.262,2.413,7.393,3.638,12.281,3.638
					c4.408,0,8.298-1.121,11.572-3.342c3.192-2.18,4.822-5.427,4.822-9.653C235.51,48.901,234.098,45.767,231.322,43.715z
					 M228.216,59.081c-2.351,1.819-5.416,2.735-9.101,2.735c-3.718,0-6.804-0.912-9.165-2.715c-1.603-1.234-2.386-3.232-2.386-6.115
					c0-2.877,0.783-4.869,2.386-6.089c2.342-1.785,5.426-2.693,9.165-2.693c3.693,0,6.754,0.908,9.103,2.702
					c1.604,1.225,2.38,3.217,2.38,6.08C230.598,55.852,229.821,57.857,228.216,59.081z"/>
			</g>
		</g>
	</g>
	<g>
		<path d="M259.896,40.08c0,0-8.273,18.634-9.191,20.719c-1.925-4.362-9.157-20.719-9.157-20.719h-5.062l10.169,22.977
			c1.074,2.431,2.797,2.947,4.051,2.947c1.279,0,3.027-0.517,4.096-2.951l10.196-22.973H259.896z"/>
	</g>
	<g>
		<g>
			<g>
				<path d="M287.48,42.797c-2.142-1.808-5.08-2.718-8.734-2.718c-3.134,0-5.782,0.672-7.871,2.01
					c-2.669,1.71-4.018,4.261-4.018,7.58v16.334h4.791c0,0,0-9.45,0-11.595h14.141c0,2.145,0,11.595,0,11.595h4.812V49.669
					C290.602,46.861,289.558,44.556,287.48,42.797z M285.789,50.346h-14.141c0-0.041,0-0.192,0-0.192
					c0-2.794,0.807-5.994,7.098-5.994c6.24,0,7.043,3.199,7.043,5.994C285.789,50.154,285.789,50.306,285.789,50.346z"/>
			</g>
		</g>
	</g>
</g>
</svg>
